<?xml version="1.0" encoding="UTF-8" ?>
<!DOCTYPE svg PUBLIC "-//W3C//DTD SVG 1.1//EN" "http://www.w3.org/Graphics/SVG/1.1/DTD/svg11.dtd">
<svg width="450pt" height="104pt" viewBox="0 0 450 104" version="1.1" xmlns="http://www.w3.org/2000/svg">
<g id="#ffffffff">
<path fill="#ffffff" opacity="1.00" d=" M 0.00 0.00 L 450.00 0.00 L 450.00 104.00 L 0.00 104.00 L 0.00 0.00 M 43.71 26.62 C 37.06 36.02 34.49 48.12 36.54 59.44 C 24.99 70.75 14.05 82.68 3.66 95.07 C 10.39 89.72 16.29 83.43 22.80 77.83 C 27.29 73.57 32.13 69.69 36.53 65.33 L 37.05 65.96 C 37.26 63.85 37.40 61.70 36.71 59.65 C 47.06 49.27 58.24 39.57 70.62 31.67 C 77.44 27.53 84.87 23.56 93.01 23.28 C 97.98 23.11 103.64 25.39 105.53 30.31 C 107.43 35.54 106.44 41.25 105.27 46.53 C 102.36 58.08 97.19 68.93 91.29 79.23 C 88.84 83.35 86.42 87.54 83.20 91.13 C 89.67 79.48 95.07 67.19 98.68 54.35 C 100.36 47.99 101.85 41.18 100.26 34.66 C 99.21 30.64 94.74 28.66 90.87 29.30 C 83.14 30.32 76.41 34.74 69.96 38.84 C 58.53 46.69 47.60 55.36 37.49 64.87 C 39.38 68.26 40.59 72.00 42.80 75.22 C 50.50 87.42 64.56 95.25 78.99 95.42 C 92.15 95.77 105.30 89.81 113.68 79.65 C 120.37 71.73 124.09 61.35 123.82 50.97 C 123.82 39.30 118.69 27.78 110.16 19.83 C 100.44 10.44 86.17 6.09 72.86 8.33 C 61.20 10.13 50.40 16.90 43.71 26.62 M 153.13 11.13 C 153.13 14.98 153.14 18.84 153.11 22.69 C 155.00 22.91 156.90 23.13 158.79 23.34 C 152.67 42.16 146.63 61.02 140.58 79.87 C 138.76 80.07 136.95 80.25 135.13 80.42 C 135.13 84.32 135.12 88.22 135.17 92.13 C 143.82 92.12 152.48 92.13 161.14 92.12 C 161.15 88.28 161.13 84.45 161.17 80.61 C 159.84 80.47 158.52 80.34 157.20 80.21 C 158.39 76.56 159.45 72.87 160.74 69.26 C 169.33 69.36 177.92 69.32 186.50 69.28 C 187.68 72.91 188.81 76.57 189.90 80.23 C 188.54 80.34 187.18 80.46 185.83 80.59 C 185.84 84.43 185.83 88.27 185.85 92.12 C 194.63 92.13 203.41 92.12 212.19 92.12 C 212.20 88.22 212.20 84.32 212.19 80.42 C 210.31 80.27 208.44 80.09 206.56 79.90 C 199.36 56.99 192.18 34.07 185.04 11.14 C 174.40 11.12 163.77 11.15 153.13 11.13 M 238.58 11.08 C 238.55 14.93 238.60 18.78 238.49 22.63 C 240.39 22.90 242.29 23.15 244.20 23.38 C 238.09 42.18 232.02 60.98 226.05 79.82 C 224.21 80.05 222.38 80.25 220.54 80.42 C 220.53 84.33 220.50 88.24 220.59 92.14 C 229.20 92.11 237.82 92.13 246.44 92.13 C 246.47 88.27 246.45 84.40 246.47 80.54 C 245.17 80.44 243.87 80.34 242.58 80.24 C 243.76 76.61 244.94 72.99 246.04 69.34 C 254.69 69.28 263.34 69.30 272.00 69.33 C 273.07 72.98 274.19 76.62 275.37 80.23 C 274.00 80.33 272.63 80.44 271.26 80.54 C 271.27 84.40 271.25 88.26 271.29 92.13 C 280.09 92.06 288.89 92.25 297.68 92.02 C 297.63 88.15 297.65 84.29 297.64 80.42 C 295.73 80.26 293.82 80.07 291.91 79.87 C 284.69 56.92 277.70 33.90 270.27 11.02 C 259.71 11.25 249.15 11.13 238.58 11.08 M 305.85 11.22 C 305.86 15.04 305.85 18.87 305.87 22.69 C 307.73 22.91 309.60 23.12 311.47 23.32 C 311.50 42.17 311.46 61.01 311.49 79.86 C 309.61 80.05 307.73 80.23 305.85 80.38 C 305.86 84.22 305.88 88.06 305.82 91.90 C 314.47 92.43 323.16 91.93 331.82 92.17 C 332.31 88.29 332.04 84.38 332.11 80.48 C 330.21 80.29 328.33 80.09 326.44 79.87 C 326.43 74.24 326.50 68.62 326.40 63.00 C 333.65 62.67 340.95 63.24 348.16 62.20 C 354.90 61.24 362.05 58.94 366.37 53.35 C 371.36 46.71 371.64 37.78 370.54 29.87 C 369.69 23.36 365.61 17.33 359.61 14.52 C 350.41 10.14 339.92 10.45 329.97 10.47 C 321.93 10.67 313.87 10.58 305.85 11.22 M 378.37 11.13 C 378.40 17.52 378.34 23.91 378.40 30.30 C 381.68 30.27 384.95 30.27 388.23 30.28 C 388.61 28.13 389.00 25.97 389.42 23.82 C 393.80 23.83 398.18 23.84 402.56 23.81 C 402.62 42.60 402.68 61.40 402.53 80.20 C 400.74 80.32 398.96 80.46 397.18 80.60 C 397.17 84.44 397.16 88.28 397.21 92.13 C 405.97 92.13 414.73 92.12 423.50 92.13 C 423.54 88.30 423.52 84.47 423.54 80.63 C 421.66 80.46 419.77 80.29 417.90 80.12 C 417.88 61.36 417.88 42.60 417.89 23.84 C 422.36 23.82 426.82 23.83 431.29 23.83 C 431.66 25.98 432.04 28.13 432.44 30.28 C 435.69 30.27 438.95 30.27 442.21 30.28 C 442.21 23.89 442.21 17.50 442.20 11.12 C 420.92 11.15 399.65 11.13 378.37 11.13 Z" />
<path fill="#ffffff" opacity="1.00" d=" M 171.16 31.48 C 172.22 28.17 172.25 24.55 173.82 21.41 C 175.94 33.49 180.30 45.01 183.70 56.76 C 176.96 56.80 170.22 56.78 163.48 56.77 C 166.11 48.36 168.68 39.93 171.16 31.48 Z" />
<path fill="#ffffff" opacity="1.00" d=" M 258.21 23.96 C 258.25 23.02 258.63 22.27 259.36 21.72 C 261.32 33.72 265.84 45.08 269.07 56.76 C 262.37 56.80 255.67 56.79 248.97 56.77 C 252.01 45.82 256.14 35.15 258.21 23.96 Z" />
<path fill="#ffffff" opacity="1.00" d=" M 326.46 23.39 C 333.81 23.64 341.34 22.74 348.53 24.67 C 352.37 25.62 355.46 28.95 355.73 32.95 C 356.38 38.16 356.11 45.02 350.68 47.66 C 343.11 51.09 334.50 49.60 326.45 49.85 C 326.45 41.03 326.44 32.21 326.46 23.39 Z" />
</g>
<g id="#002245ff">
<path fill="#002245" opacity="1.00" d=" M 43.71 26.62 C 50.40 16.90 61.20 10.13 72.86 8.33 C 86.17 6.09 100.44 10.44 110.16 19.83 C 118.69 27.78 123.82 39.30 123.82 50.97 C 124.09 61.35 120.37 71.73 113.68 79.65 C 105.30 89.81 92.15 95.77 78.99 95.42 C 64.56 95.25 50.50 87.42 42.80 75.22 C 40.59 72.00 39.38 68.26 37.49 64.87 C 47.60 55.36 58.53 46.69 69.96 38.84 C 76.41 34.74 83.14 30.32 90.87 29.30 C 94.74 28.66 99.21 30.64 100.26 34.66 C 101.85 41.18 100.36 47.99 98.68 54.35 C 95.07 67.19 89.67 79.48 83.20 91.13 C 86.42 87.54 88.84 83.35 91.29 79.23 C 97.19 68.93 102.36 58.08 105.27 46.53 C 106.44 41.25 107.43 35.54 105.53 30.31 C 103.64 25.39 97.98 23.11 93.01 23.28 C 84.87 23.56 77.44 27.53 70.62 31.67 C 58.24 39.57 47.06 49.27 36.71 59.65 C 37.40 61.70 37.26 63.85 37.05 65.96 L 36.53 65.33 C 32.13 69.69 27.29 73.57 22.80 77.83 C 16.29 83.43 10.39 89.72 3.66 95.07 C 14.05 82.68 24.99 70.75 36.54 59.44 C 34.49 48.12 37.06 36.02 43.71 26.62 Z" />
<path fill="#002245" opacity="1.00" d=" M 153.13 11.13 C 163.77 11.15 174.40 11.12 185.04 11.14 C 192.18 34.07 199.36 56.99 206.56 79.90 C 208.44 80.09 210.31 80.27 212.19 80.42 C 212.20 84.32 212.20 88.22 212.19 92.12 C 203.41 92.12 194.63 92.13 185.85 92.12 C 185.83 88.27 185.84 84.43 185.83 80.59 C 187.18 80.46 188.54 80.34 189.90 80.23 C 188.81 76.57 187.68 72.91 186.50 69.28 C 177.92 69.32 169.33 69.36 160.74 69.26 C 159.45 72.87 158.39 76.56 157.20 80.21 C 158.52 80.34 159.84 80.47 161.17 80.61 C 161.13 84.45 161.15 88.28 161.14 92.12 C 152.48 92.13 143.82 92.12 135.17 92.13 C 135.12 88.22 135.13 84.32 135.13 80.42 C 136.95 80.25 138.76 80.07 140.58 79.87 C 146.63 61.02 152.67 42.16 158.79 23.34 C 156.90 23.13 155.00 22.91 153.11 22.69 C 153.14 18.84 153.13 14.98 153.13 11.13 M 171.16 31.48 C 168.68 39.93 166.11 48.36 163.48 56.77 C 170.22 56.78 176.96 56.80 183.70 56.76 C 180.30 45.01 175.94 33.49 173.82 21.41 C 172.25 24.55 172.22 28.17 171.16 31.48 Z" />
<path fill="#002245" opacity="1.00" d=" M 238.58 11.08 C 249.15 11.13 259.71 11.25 270.27 11.02 C 277.70 33.90 284.69 56.92 291.91 79.87 C 293.82 80.07 295.73 80.26 297.64 80.42 C 297.65 84.29 297.63 88.15 297.68 92.02 C 288.89 92.25 280.09 92.06 271.29 92.13 C 271.25 88.26 271.27 84.40 271.26 80.54 C 272.63 80.44 274.00 80.33 275.37 80.23 C 274.19 76.62 273.07 72.98 272.00 69.33 C 263.34 69.30 254.69 69.28 246.04 69.34 C 244.94 72.99 243.76 76.61 242.58 80.24 C 243.87 80.34 245.17 80.44 246.47 80.54 C 246.45 84.40 246.47 88.27 246.44 92.13 C 237.82 92.13 229.20 92.11 220.59 92.14 C 220.50 88.24 220.53 84.33 220.54 80.42 C 222.38 80.25 224.21 80.05 226.05 79.82 C 232.02 60.98 238.09 42.18 244.20 23.38 C 242.29 23.15 240.39 22.90 238.49 22.63 C 238.60 18.78 238.55 14.93 238.58 11.08 M 258.21 23.96 C 256.14 35.15 252.01 45.82 248.97 56.77 C 255.67 56.79 262.37 56.80 269.07 56.76 C 265.84 45.08 261.32 33.72 259.36 21.72 C 258.63 22.27 258.25 23.02 258.21 23.96 Z" />
<path fill="#002245" opacity="1.00" d=" M 305.85 11.22 C 313.87 10.58 321.93 10.67 329.97 10.47 C 339.92 10.45 350.41 10.14 359.61 14.52 C 365.61 17.33 369.69 23.36 370.54 29.87 C 371.64 37.78 371.36 46.71 366.37 53.35 C 362.05 58.94 354.90 61.24 348.16 62.20 C 340.95 63.24 333.65 62.67 326.40 63.00 C 326.50 68.62 326.43 74.24 326.44 79.87 C 328.33 80.09 330.21 80.29 332.11 80.48 C 332.04 84.38 332.31 88.29 331.82 92.17 C 323.16 91.93 314.47 92.43 305.82 91.90 C 305.88 88.06 305.86 84.22 305.85 80.38 C 307.73 80.23 309.61 80.05 311.49 79.86 C 311.46 61.01 311.50 42.17 311.47 23.32 C 309.60 23.12 307.73 22.91 305.87 22.69 C 305.85 18.87 305.86 15.04 305.85 11.22 M 326.46 23.39 C 326.44 32.21 326.45 41.03 326.45 49.85 C 334.50 49.60 343.11 51.09 350.68 47.66 C 356.11 45.02 356.38 38.16 355.73 32.95 C 355.46 28.95 352.37 25.62 348.53 24.67 C 341.34 22.74 333.81 23.64 326.46 23.39 Z" />
<path fill="#002245" opacity="1.00" d=" M 378.37 11.13 C 399.65 11.13 420.92 11.15 442.20 11.12 C 442.21 17.50 442.21 23.89 442.21 30.28 C 438.95 30.27 435.69 30.27 432.44 30.28 C 432.04 28.13 431.66 25.98 431.29 23.83 C 426.82 23.83 422.36 23.82 417.89 23.84 C 417.88 42.60 417.88 61.36 417.90 80.12 C 419.77 80.29 421.66 80.46 423.54 80.63 C 423.52 84.47 423.54 88.30 423.50 92.13 C 414.73 92.12 405.97 92.13 397.21 92.13 C 397.16 88.28 397.17 84.44 397.18 80.60 C 398.96 80.46 400.74 80.32 402.53 80.20 C 402.68 61.40 402.62 42.60 402.56 23.81 C 398.18 23.84 393.80 23.83 389.42 23.82 C 389.00 25.97 388.61 28.13 388.23 30.28 C 384.95 30.27 381.68 30.27 378.40 30.30 C 378.34 23.91 378.40 17.52 378.37 11.13 Z" />
</g>
</svg>
